<svg xmlns="http://www.w3.org/2000/svg" xmlns:xlink="http://www.w3.org/1999/xlink" width="500" zoomAndPan="magnify" viewBox="0 0 375 374.999991" height="500" preserveAspectRatio="xMidYMid meet" version="1.0"><defs><g/><clipPath id="d0ee69f903"><path d="M 120 185 L 143 185 L 143 191.902344 L 120 191.902344 Z M 120 185 " clip-rule="nonzero"/></clipPath><clipPath id="300d70c8f6"><path d="M 128 65.902344 L 135 65.902344 L 135 84 L 128 84 Z M 128 65.902344 " clip-rule="nonzero"/></clipPath><clipPath id="e5c485db56"><path d="M 181 130 L 198.019531 130 L 198.019531 136 L 181 136 Z M 181 130 " clip-rule="nonzero"/></clipPath><clipPath id="137dc19981"><path d="M 64.519531 130 L 82 130 L 82 136 L 64.519531 136 Z M 64.519531 130 " clip-rule="nonzero"/></clipPath><clipPath id="eedd95af09"><path d="M 213.328125 164.761719 L 240.472656 164.761719 L 240.472656 191.90625 L 213.328125 191.90625 Z M 213.328125 164.761719 " clip-rule="nonzero"/></clipPath><clipPath id="72ae7ae5d1"><path d="M 226.902344 164.761719 C 219.40625 164.761719 213.328125 170.839844 213.328125 178.335938 C 213.328125 185.828125 219.40625 191.90625 226.902344 191.90625 C 234.394531 191.90625 240.472656 185.828125 240.472656 178.335938 C 240.472656 170.839844 234.394531 164.761719 226.902344 164.761719 Z M 226.902344 164.761719 " clip-rule="nonzero"/></clipPath></defs><rect x="-37.5" width="450" fill="#ffffff" y="-37.499999" height="449.999989" fill-opacity="1"/><rect x="-37.5" width="450" fill="#ffffff" y="-37.499999" height="449.999989" fill-opacity="1"/><path fill="#55565a" d="M 113.933594 94.820312 C 114.992188 94.820312 116.046875 95.03125 116.890625 95.242188 C 117.3125 95.453125 117.523438 95.453125 117.734375 95.664062 C 118.367188 94.820312 119 94.183594 119.84375 93.550781 C 121.109375 92.496094 122.800781 92.074219 124.699219 92.074219 C 127.019531 92.074219 129.132812 92.917969 130.609375 94.609375 C 130.820312 94.820312 131.03125 95.03125 131.242188 95.453125 C 131.453125 95.242188 131.664062 95.03125 131.875 94.609375 C 133.351562 93.128906 135.464844 92.074219 137.785156 92.074219 C 139.683594 92.074219 141.160156 92.707031 142.640625 93.550781 C 143.484375 94.183594 144.117188 94.820312 144.75 95.664062 C 144.960938 95.453125 145.382812 95.453125 145.59375 95.242188 C 146.648438 94.820312 147.492188 94.820312 148.546875 94.820312 C 151.082031 94.820312 153.613281 95.875 155.300781 97.5625 C 156.78125 99.039062 157.835938 101.148438 158.046875 103.472656 C 161 103.683594 163.535156 105.160156 165.644531 107.058594 C 167.964844 109.382812 169.230469 112.335938 169.230469 115.714844 C 169.230469 116.980469 169.019531 118.246094 168.597656 119.300781 C 168.386719 119.722656 168.386719 120.144531 168.175781 120.566406 C 169.863281 121.199219 171.34375 122.253906 172.398438 123.523438 C 174.085938 125.421875 175.140625 127.953125 175.140625 130.488281 C 175.140625 132.386719 174.71875 134.285156 173.664062 135.761719 C 173.03125 136.820312 172.1875 137.664062 171.34375 138.507812 C 171.765625 139.140625 172.1875 139.773438 172.398438 140.617188 C 172.820312 141.882812 173.242188 143.359375 173.242188 144.839844 C 173.242188 148.003906 171.976562 150.960938 169.863281 153.070312 C 168.175781 154.757812 165.644531 156.023438 163.109375 156.445312 L 163.109375 156.867188 C 163.109375 160.035156 161.84375 162.988281 159.734375 164.890625 C 157.625 167 154.878906 168.265625 151.714844 168.265625 C 150.660156 168.265625 149.605469 168.054688 148.546875 167.84375 C 148.125 167.632812 147.914062 167.632812 147.492188 167.421875 C 146.859375 168.6875 146.015625 169.742188 144.960938 170.375 C 143.273438 171.644531 141.371094 172.277344 139.261719 172.277344 C 136.730469 172.277344 134.40625 171.21875 132.71875 169.53125 C 132.296875 169.109375 131.875 168.6875 131.664062 168.265625 C 131.242188 168.6875 131.03125 169.109375 130.609375 169.53125 C 128.921875 171.21875 126.597656 172.277344 124.066406 172.277344 C 121.957031 172.277344 119.84375 171.644531 118.367188 170.375 C 117.3125 169.53125 116.46875 168.476562 115.835938 167.421875 C 115.414062 167.632812 115.203125 167.632812 114.78125 167.84375 C 113.722656 168.054688 112.667969 168.265625 111.613281 168.265625 C 108.449219 168.265625 105.492188 167 103.59375 164.890625 C 101.484375 162.777344 100.21875 160.035156 100.21875 156.867188 L 100.21875 156.445312 C 97.683594 156.023438 95.152344 154.96875 93.464844 153.070312 C 91.351562 150.960938 90.085938 148.003906 90.085938 144.839844 C 90.085938 143.359375 90.296875 141.882812 90.929688 140.617188 C 91.140625 139.984375 91.5625 139.140625 91.984375 138.507812 C 91.140625 137.664062 90.296875 136.820312 89.664062 135.761719 C 88.820312 134.074219 88.1875 132.386719 88.1875 130.488281 C 88.1875 127.742188 89.242188 125.210938 90.929688 123.523438 C 91.984375 122.253906 93.464844 121.199219 95.152344 120.566406 C 94.941406 120.144531 94.941406 119.722656 94.730469 119.300781 C 94.308594 118.035156 94.097656 116.980469 94.097656 115.714844 C 94.097656 112.335938 95.574219 109.171875 97.683594 107.058594 C 99.582031 105.160156 102.328125 103.894531 105.28125 103.472656 C 105.492188 101.148438 106.546875 99.25 108.027344 97.5625 C 109.714844 95.875 112.035156 94.820312 114.78125 94.820312 Z M 161 133.230469 C 160.367188 132.386719 159.3125 132.175781 158.46875 132.808594 C 157.625 133.441406 157.414062 134.496094 158.046875 135.339844 C 158.046875 135.339844 159.945312 137.875 157.203125 140.40625 C 156.570312 141.039062 156.570312 142.304688 157.203125 142.9375 C 157.835938 143.570312 159.101562 143.570312 159.734375 142.9375 C 164.589844 138.296875 161 133.441406 161 133.441406 Z M 143.484375 141.882812 C 143.695312 142.9375 143.695312 144.417969 142.640625 146.527344 C 142.21875 147.371094 142.640625 148.425781 143.484375 148.847656 C 144.328125 149.269531 145.382812 148.847656 145.804688 148.003906 C 147.703125 143.996094 147.070312 141.039062 146.4375 139.351562 C 148.125 137.242188 148.335938 135.339844 148.335938 135.339844 C 148.546875 134.285156 147.914062 133.441406 146.859375 133.230469 C 145.804688 133.019531 144.960938 133.652344 144.75 134.707031 C 144.75 134.707031 144.539062 136.394531 142.851562 137.875 C 142.21875 138.507812 141.160156 139.140625 139.894531 139.351562 C 139.050781 139.5625 138.417969 140.617188 138.628906 141.460938 C 138.839844 142.304688 139.894531 142.9375 140.738281 142.726562 C 141.582031 142.515625 142.429688 142.09375 143.273438 141.671875 Z M 141.792969 122.464844 C 142.640625 124.15625 144.328125 126.6875 148.546875 127.53125 C 149.605469 127.742188 150.449219 127.109375 150.660156 126.265625 C 150.871094 125.210938 150.238281 124.367188 149.394531 124.15625 C 145.804688 123.3125 144.960938 121.199219 144.75 120.355469 C 146.015625 119.933594 147.070312 119.933594 147.070312 119.933594 C 148.125 119.933594 148.96875 119.300781 148.96875 118.246094 C 148.96875 117.191406 148.335938 116.347656 147.28125 116.347656 C 147.28125 116.347656 139.261719 115.714844 136.941406 123.945312 C 136.730469 124.789062 137.152344 125.84375 138.207031 126.054688 C 139.050781 126.265625 140.105469 125.84375 140.316406 124.789062 C 140.527344 123.734375 140.949219 122.890625 141.582031 122.253906 Z M 143.695312 109.382812 C 144.117188 110.226562 145.171875 110.648438 146.015625 110.226562 C 146.859375 109.804688 147.28125 108.75 146.859375 107.902344 C 146.859375 107.902344 143.695312 101.996094 137.574219 103.894531 C 136.730469 104.105469 136.097656 105.160156 136.308594 106.003906 C 136.519531 106.847656 137.574219 107.480469 138.417969 107.269531 C 141.792969 106.214844 143.484375 109.59375 143.484375 109.59375 Z M 133.5625 153.28125 C 134.828125 152.226562 136.519531 151.382812 138.839844 151.171875 C 139.894531 150.960938 140.738281 151.59375 140.949219 152.648438 C 141.160156 153.703125 140.527344 154.546875 139.472656 154.757812 C 134.40625 155.601562 133.773438 159.613281 133.773438 160.035156 L 133.773438 162.355469 C 133.773438 162.566406 133.773438 162.988281 133.773438 163.199219 L 133.773438 163.410156 C 133.773438 165.101562 134.617188 166.367188 135.675781 167.421875 C 136.730469 168.476562 138.207031 169.109375 139.894531 169.109375 C 141.160156 169.109375 142.429688 168.6875 143.484375 167.84375 C 144.539062 167 145.171875 165.945312 145.59375 164.679688 C 145.804688 163.832031 146.859375 163.199219 147.703125 163.410156 C 147.914062 163.410156 148.125 163.621094 148.125 163.621094 C 148.757812 164.042969 149.394531 164.253906 150.238281 164.464844 C 150.871094 164.679688 151.714844 164.679688 152.558594 164.679688 C 154.667969 164.679688 156.78125 163.832031 158.046875 162.355469 C 159.523438 160.878906 160.367188 158.980469 160.367188 156.867188 C 160.367188 156.65625 160.367188 156.234375 160.367188 156.023438 C 160.367188 155.8125 160.367188 155.601562 160.15625 155.390625 C 159.945312 154.757812 158.257812 150.324219 153.824219 150.113281 C 152.769531 150.113281 152.136719 149.269531 152.136719 148.214844 C 152.136719 147.160156 152.980469 146.527344 154.035156 146.527344 C 159.3125 146.949219 162.054688 150.960938 163.109375 153.070312 C 165.011719 152.859375 166.910156 152.015625 168.175781 150.75 C 169.652344 149.269531 170.5 147.160156 170.5 145.050781 C 170.5 143.996094 170.289062 142.9375 169.863281 142.09375 C 169.441406 141.25 169.019531 140.195312 168.175781 139.5625 C 167.542969 138.929688 167.542969 137.664062 168.386719 137.03125 C 168.386719 137.03125 168.597656 136.820312 168.597656 136.820312 C 169.652344 136.183594 170.710938 135.339844 171.34375 134.285156 C 171.976562 133.230469 172.398438 131.964844 172.398438 130.699219 C 172.398438 128.796875 171.765625 127.320312 170.710938 126.054688 C 169.652344 124.789062 168.175781 123.945312 166.488281 123.734375 C 165.644531 123.734375 162.054688 124.367188 161 127.320312 C 160.578125 128.164062 159.734375 128.796875 158.679688 128.375 C 157.835938 127.953125 157.203125 127.109375 157.625 126.054688 C 159.101562 121.621094 163.535156 120.355469 165.433594 120.144531 C 165.644531 119.511719 166.066406 119.089844 166.277344 118.457031 C 166.488281 117.613281 166.699219 116.769531 166.699219 115.925781 C 166.699219 113.390625 165.644531 111.28125 164.167969 109.804688 C 162.6875 108.324219 160.789062 107.480469 158.679688 107.269531 C 158.046875 109.171875 156.359375 112.125 152.980469 112.96875 C 152.136719 113.179688 151.082031 112.757812 150.871094 111.703125 C 150.660156 110.859375 151.082031 109.804688 152.136719 109.59375 C 155.089844 108.75 155.722656 105.371094 155.722656 104.949219 L 155.722656 104.527344 C 155.722656 102.839844 155.089844 101.359375 154.035156 100.304688 C 152.980469 99.25 151.503906 98.617188 149.816406 98.617188 C 149.183594 98.617188 148.546875 98.828125 147.914062 98.828125 C 147.28125 99.039062 146.648438 99.25 146.226562 99.671875 C 145.382812 100.304688 144.328125 100.09375 143.695312 99.25 C 143.484375 99.039062 143.484375 98.828125 143.484375 98.828125 C 143.0625 97.984375 142.429688 97.140625 141.792969 96.507812 C 140.949219 95.875 140.105469 95.664062 139.050781 95.664062 C 137.785156 95.664062 136.519531 96.296875 135.675781 97.140625 C 134.828125 97.984375 134.195312 99.25 134.195312 100.515625 L 134.195312 153.28125 Z M 108.449219 104.738281 C 108.449219 105.160156 109.082031 108.535156 112.035156 109.382812 C 112.878906 109.59375 113.511719 110.648438 113.300781 111.492188 C 113.089844 112.335938 112.035156 112.96875 111.191406 112.757812 C 107.605469 111.703125 106.125 108.960938 105.492188 107.058594 C 103.382812 107.269531 101.484375 108.113281 100.003906 109.59375 C 98.316406 111.28125 97.472656 113.390625 97.472656 115.714844 C 97.472656 116.558594 97.683594 117.613281 97.894531 118.246094 C 98.105469 118.878906 98.316406 119.511719 98.738281 119.933594 C 100.640625 120.355469 105.070312 121.410156 106.546875 125.84375 C 106.96875 126.6875 106.335938 127.742188 105.492188 128.164062 C 104.648438 128.585938 103.59375 127.953125 103.171875 127.109375 C 102.117188 123.945312 98.316406 123.523438 97.683594 123.523438 C 95.996094 123.734375 94.519531 124.578125 93.464844 125.84375 C 92.40625 127.109375 91.773438 128.796875 91.773438 130.488281 C 91.773438 131.753906 92.195312 133.019531 92.828125 134.074219 C 93.464844 135.128906 94.308594 135.972656 95.574219 136.605469 C 95.785156 136.605469 95.785156 136.820312 95.785156 136.820312 C 96.417969 137.453125 96.628906 138.507812 95.996094 139.351562 C 95.363281 140.195312 94.730469 141.039062 94.308594 141.882812 C 93.886719 142.726562 93.675781 143.785156 93.675781 144.839844 C 93.675781 147.160156 94.519531 149.058594 95.996094 150.535156 C 97.261719 151.804688 99.160156 152.648438 101.0625 152.859375 C 102.117188 150.75 104.648438 146.527344 110.136719 146.316406 C 111.191406 146.316406 112.035156 146.949219 112.035156 148.003906 C 112.035156 149.058594 111.402344 149.902344 110.347656 149.902344 C 105.914062 150.113281 104.226562 154.546875 104.015625 155.179688 C 104.015625 155.390625 104.015625 155.601562 103.804688 155.8125 C 103.804688 156.023438 103.804688 156.445312 103.804688 156.65625 C 103.804688 158.769531 104.648438 160.878906 106.125 162.144531 C 107.605469 163.621094 109.503906 164.464844 111.613281 164.464844 C 112.457031 164.464844 113.089844 164.253906 113.933594 164.253906 C 114.570312 164.042969 115.414062 163.832031 116.046875 163.410156 C 116.257812 163.410156 116.257812 163.199219 116.46875 163.199219 C 117.3125 162.988281 118.367188 163.410156 118.578125 164.464844 C 119 165.734375 119.632812 166.789062 120.6875 167.632812 C 121.746094 168.476562 123.011719 168.898438 124.277344 168.898438 C 125.964844 168.898438 127.441406 168.265625 128.5 167.210938 C 129.554688 166.15625 130.1875 164.679688 130.398438 163.199219 L 130.398438 162.988281 C 130.398438 162.777344 130.398438 162.355469 130.398438 162.144531 L 130.398438 115.5 C 129.132812 116.558594 127.441406 117.402344 125.121094 117.613281 C 124.066406 117.824219 123.222656 117.191406 123.011719 116.136719 C 122.800781 115.078125 123.433594 114.234375 124.488281 114.023438 C 129.554688 113.179688 130.1875 109.171875 130.1875 108.75 L 130.1875 100.304688 C 130.1875 99.039062 129.554688 97.773438 128.710938 96.929688 C 127.863281 96.085938 126.597656 95.453125 125.332031 95.453125 C 124.277344 95.453125 123.433594 95.875 122.589844 96.296875 C 121.746094 96.929688 121.109375 97.773438 120.898438 98.617188 C 120.898438 98.828125 120.6875 99.039062 120.6875 99.039062 C 120.054688 99.882812 119 99.882812 118.15625 99.460938 C 117.734375 99.039062 117.101562 98.828125 116.46875 98.617188 C 115.835938 98.40625 115.203125 98.40625 114.570312 98.40625 C 112.878906 98.40625 111.402344 99.039062 110.347656 100.09375 C 109.292969 101.148438 108.660156 102.628906 108.660156 104.316406 L 108.660156 104.738281 Z M 119.84375 109.59375 C 119.421875 110.4375 118.367188 110.859375 117.523438 110.4375 C 116.679688 110.015625 116.257812 108.960938 116.679688 108.113281 C 116.679688 108.113281 119.84375 102.207031 125.964844 104.105469 C 126.808594 104.316406 127.441406 105.371094 127.230469 106.214844 C 127.019531 107.058594 125.964844 107.691406 125.121094 107.480469 C 121.746094 106.425781 120.054688 109.804688 120.054688 109.804688 Z M 116.257812 126.054688 C 115.203125 126.054688 114.359375 125.421875 114.359375 124.367188 C 114.359375 123.3125 114.992188 122.464844 116.046875 122.464844 C 116.046875 122.464844 124.066406 121.832031 126.386719 130.066406 C 126.597656 130.910156 126.175781 131.964844 125.121094 132.175781 C 124.277344 132.386719 123.222656 131.964844 123.011719 130.910156 C 122.800781 129.855469 122.378906 129.007812 121.746094 128.375 C 120.898438 130.066406 119.210938 132.597656 114.992188 133.441406 C 113.933594 133.652344 113.089844 133.019531 112.878906 132.175781 C 112.667969 131.121094 113.300781 130.277344 114.148438 130.066406 C 117.734375 129.21875 118.578125 127.109375 118.789062 126.265625 C 117.523438 125.84375 116.46875 125.84375 116.46875 125.84375 Z M 116.46875 145.050781 C 116.257812 143.996094 116.890625 143.148438 117.945312 142.9375 C 119 142.726562 119.84375 143.359375 120.054688 144.417969 C 120.054688 144.417969 120.265625 146.105469 121.957031 147.582031 C 122.589844 148.214844 123.644531 148.847656 124.910156 149.058594 C 125.753906 149.269531 126.386719 150.324219 126.175781 151.171875 C 125.964844 152.015625 124.910156 152.648438 124.066406 152.4375 C 123.222656 152.226562 122.378906 151.804688 121.535156 151.382812 C 121.324219 152.4375 121.324219 153.914062 122.378906 156.023438 C 122.800781 156.867188 122.378906 157.925781 121.535156 158.347656 C 120.6875 158.769531 119.632812 158.347656 119.210938 157.5 C 117.3125 153.492188 117.945312 150.535156 118.578125 148.847656 C 116.890625 146.738281 116.679688 144.839844 116.679688 144.839844 Z M 102.328125 133.230469 C 102.960938 132.386719 104.015625 132.175781 104.859375 132.808594 C 105.703125 133.441406 105.914062 134.496094 105.28125 135.339844 C 105.28125 135.339844 103.382812 137.875 106.125 140.40625 C 106.757812 141.039062 106.757812 142.304688 106.125 142.9375 C 105.492188 143.570312 104.226562 143.570312 103.59375 142.9375 C 98.738281 138.296875 102.328125 133.441406 102.328125 133.441406 Z M 102.328125 133.230469 " fill-opacity="1" fill-rule="nonzero"/><g clip-path="url(#d0ee69f903)"><path fill="#55565a" d="M 142.003906 185.570312 C 139.683594 189.371094 135.886719 191.902344 131.453125 191.902344 C 127.230469 191.902344 123.433594 189.371094 120.898438 185.570312 Z M 142.003906 185.570312 " fill-opacity="1" fill-rule="evenodd"/></g><path fill="#55565a" d="M 115.625 175.863281 L 147.492188 175.863281 C 147.71875 175.863281 147.933594 175.914062 148.140625 176.015625 C 148.347656 176.117188 148.527344 176.261719 148.6875 176.449219 C 148.84375 176.640625 148.96875 176.855469 149.054688 177.101562 C 149.140625 177.347656 149.183594 177.601562 149.183594 177.867188 C 149.183594 178.132812 149.140625 178.390625 149.054688 178.636719 C 148.96875 178.882812 148.84375 179.097656 148.6875 179.285156 C 148.527344 179.472656 148.347656 179.621094 148.140625 179.722656 C 147.933594 179.824219 147.71875 179.875 147.492188 179.875 L 115.625 179.875 C 115.398438 179.875 115.183594 179.824219 114.976562 179.722656 C 114.769531 179.621094 114.589844 179.472656 114.429688 179.285156 C 114.273438 179.097656 114.148438 178.882812 114.0625 178.636719 C 113.976562 178.390625 113.933594 178.132812 113.933594 177.867188 C 113.933594 177.601562 113.976562 177.347656 114.0625 177.101562 C 114.148438 176.855469 114.273438 176.640625 114.429688 176.449219 C 114.589844 176.261719 114.769531 176.117188 114.976562 176.015625 C 115.183594 175.914062 115.398438 175.863281 115.625 175.863281 Z M 115.625 175.863281 " fill-opacity="1" fill-rule="evenodd"/><path fill="#55565a" d="M 117.945312 181.773438 L 144.960938 181.773438 C 145.128906 181.773438 145.289062 181.824219 145.445312 181.925781 C 145.601562 182.027344 145.738281 182.171875 145.855469 182.359375 C 145.976562 182.546875 146.066406 182.765625 146.128906 183.011719 C 146.195312 183.257812 146.226562 183.511719 146.226562 183.777344 C 146.226562 184.042969 146.195312 184.300781 146.128906 184.546875 C 146.066406 184.792969 145.976562 185.007812 145.855469 185.195312 C 145.738281 185.382812 145.601562 185.527344 145.445312 185.628906 C 145.289062 185.730469 145.128906 185.785156 144.960938 185.785156 L 117.945312 185.785156 C 117.777344 185.785156 117.617188 185.730469 117.460938 185.628906 C 117.304688 185.527344 117.167969 185.382812 117.050781 185.195312 C 116.929688 185.007812 116.839844 184.792969 116.777344 184.546875 C 116.710938 184.300781 116.679688 184.042969 116.679688 183.777344 C 116.679688 183.511719 116.710938 183.257812 116.777344 183.011719 C 116.839844 182.765625 116.929688 182.546875 117.050781 182.359375 C 117.167969 182.171875 117.304688 182.027344 117.460938 181.925781 C 117.617188 181.824219 117.777344 181.773438 117.945312 181.773438 Z M 117.945312 181.773438 " fill-opacity="1" fill-rule="evenodd"/><g clip-path="url(#300d70c8f6)"><path fill="#55565a" d="M 128.710938 68.648438 C 128.710938 67.171875 129.976562 65.902344 131.453125 65.902344 C 132.929688 65.902344 134.195312 67.171875 134.195312 68.648438 L 134.195312 80.464844 C 134.195312 81.945312 132.929688 83.210938 131.453125 83.210938 C 129.976562 83.210938 128.710938 81.945312 128.710938 80.464844 Z M 128.710938 68.648438 " fill-opacity="1" fill-rule="nonzero"/></g><path fill="#55565a" d="M 161.210938 75.824219 C 162.054688 74.558594 163.746094 74.136719 165.011719 74.769531 C 166.277344 75.613281 166.699219 77.300781 166.066406 78.566406 L 160.15625 88.910156 C 159.3125 90.175781 157.625 90.597656 156.359375 89.964844 C 155.089844 89.121094 154.667969 87.429688 155.300781 86.164062 Z M 161.210938 75.824219 " fill-opacity="1" fill-rule="nonzero"/><path fill="#55565a" d="M 185.695312 98.40625 C 186.960938 97.5625 188.648438 98.195312 189.492188 99.460938 C 190.335938 100.726562 189.703125 102.417969 188.4375 103.261719 L 178.097656 109.171875 C 176.828125 110.015625 175.140625 109.382812 174.296875 108.113281 C 173.453125 106.847656 174.085938 105.160156 175.351562 104.316406 Z M 185.695312 98.40625 " fill-opacity="1" fill-rule="nonzero"/><g clip-path="url(#e5c485db56)"><path fill="#55565a" d="M 195.613281 130.066406 C 197.089844 130.066406 198.359375 131.332031 198.359375 132.808594 C 198.359375 134.285156 197.089844 135.550781 195.613281 135.550781 L 183.792969 135.550781 C 182.316406 135.550781 181.050781 134.285156 181.050781 132.808594 C 181.050781 131.332031 182.316406 130.066406 183.792969 130.066406 Z M 195.613281 130.066406 " fill-opacity="1" fill-rule="nonzero"/></g><path fill="#55565a" d="M 188.4375 162.566406 C 189.703125 163.410156 190.125 165.101562 189.492188 166.367188 C 188.648438 167.632812 186.960938 168.054688 185.695312 167.421875 L 175.351562 161.511719 C 174.085938 160.667969 173.664062 158.980469 174.296875 157.714844 C 175.140625 156.445312 176.828125 156.023438 178.097656 156.65625 Z M 188.4375 162.566406 " fill-opacity="1" fill-rule="nonzero"/><path fill="#55565a" d="M 77.421875 167.421875 C 76.15625 168.265625 74.46875 167.632812 73.625 166.367188 C 72.78125 165.101562 73.414062 163.410156 74.679688 162.566406 L 85.019531 156.65625 C 86.289062 155.8125 87.976562 156.445312 88.820312 157.714844 C 89.664062 158.980469 89.03125 160.667969 87.765625 161.511719 Z M 77.421875 167.421875 " fill-opacity="1" fill-rule="nonzero"/><g clip-path="url(#137dc19981)"><path fill="#55565a" d="M 67.292969 135.761719 C 65.816406 135.761719 64.546875 134.496094 64.546875 133.019531 C 64.546875 131.542969 65.816406 130.277344 67.292969 130.277344 L 79.113281 130.277344 C 80.589844 130.277344 81.855469 131.542969 81.855469 133.019531 C 81.855469 134.496094 80.589844 135.761719 79.113281 135.761719 Z M 67.292969 135.761719 " fill-opacity="1" fill-rule="nonzero"/></g><path fill="#55565a" d="M 74.46875 103.261719 C 73.203125 102.417969 72.78125 100.726562 73.414062 99.460938 C 74.257812 98.195312 75.945312 97.773438 77.210938 98.40625 L 87.554688 104.316406 C 88.820312 105.160156 89.242188 106.847656 88.609375 108.113281 C 87.765625 109.382812 86.074219 109.804688 84.808594 109.171875 Z M 74.46875 103.261719 " fill-opacity="1" fill-rule="nonzero"/><path fill="#55565a" d="M 97.050781 78.777344 C 96.207031 77.511719 96.839844 75.824219 98.105469 74.980469 C 99.371094 74.136719 101.0625 74.769531 101.90625 76.035156 L 107.816406 86.375 C 108.660156 87.644531 108.027344 89.332031 106.757812 90.175781 C 105.492188 91.019531 103.804688 90.386719 102.960938 89.121094 Z M 97.050781 78.777344 " fill-opacity="1" fill-rule="nonzero"/><g clip-path="url(#eedd95af09)"><g clip-path="url(#72ae7ae5d1)"><path fill="#ffffff" d="M 213.328125 164.761719 L 240.472656 164.761719 L 240.472656 191.90625 L 213.328125 191.90625 Z M 213.328125 164.761719 " fill-opacity="1" fill-rule="nonzero"/></g></g><g fill="#55565a" fill-opacity="1"><g transform="translate(2.135461, 274.621407)"><g><path d="M 55.671875 1.71875 C 46.304688 1.71875 38 -0.332031 30.75 -4.4375 C 23.5 -8.550781 17.84375 -14.226562 13.78125 -21.46875 C 9.71875 -28.71875 7.6875 -37.023438 7.6875 -46.390625 C 7.6875 -55.847656 9.71875 -64.175781 13.78125 -71.375 C 17.84375 -78.570312 23.5 -84.222656 30.75 -88.328125 C 38 -92.441406 46.304688 -94.5 55.671875 -94.5 C 65.128906 -94.5 73.457031 -92.441406 80.65625 -88.328125 C 87.851562 -84.222656 93.503906 -78.570312 97.609375 -71.375 C 101.722656 -64.175781 103.78125 -55.847656 103.78125 -46.390625 C 103.78125 -39.054688 102.5 -32.335938 99.9375 -26.234375 C 97.375 -20.140625 93.75 -14.925781 89.0625 -10.59375 C 84.382812 -6.269531 78.910156 -3.046875 72.640625 -0.921875 L 73.703125 1.859375 C 74.847656 4.421875 76.101562 6.429688 77.46875 7.890625 C 78.84375 9.347656 80.609375 10.363281 82.765625 10.9375 C 84.929688 11.507812 87.738281 11.796875 91.1875 11.796875 L 99.015625 11.796875 L 99.015625 22.9375 L 90.265625 22.9375 C 83.285156 22.9375 77.582031 21.585938 73.15625 18.890625 C 68.738281 16.191406 65.296875 11.882812 62.828125 5.96875 L 60.96875 1.453125 C 60.082031 1.546875 59.21875 1.613281 58.375 1.65625 C 57.539062 1.695312 56.640625 1.71875 55.671875 1.71875 Z M 19.609375 -46.390625 C 19.609375 -39.234375 21.132812 -32.914062 24.1875 -27.4375 C 27.238281 -21.957031 31.476562 -17.671875 36.90625 -14.578125 C 42.34375 -11.484375 48.597656 -9.9375 55.671875 -9.9375 C 62.828125 -9.9375 69.097656 -11.484375 74.484375 -14.578125 C 79.878906 -17.671875 84.097656 -21.957031 87.140625 -27.4375 C 90.191406 -32.914062 91.71875 -39.234375 91.71875 -46.390625 C 91.71875 -53.640625 90.191406 -59.976562 87.140625 -65.40625 C 84.097656 -70.84375 79.878906 -75.109375 74.484375 -78.203125 C 69.097656 -81.296875 62.828125 -82.84375 55.671875 -82.84375 C 48.597656 -82.84375 42.34375 -81.296875 36.90625 -78.203125 C 31.476562 -75.109375 27.238281 -70.84375 24.1875 -65.40625 C 21.132812 -59.976562 19.609375 -53.640625 19.609375 -46.390625 Z M 19.609375 -46.390625 "/></g></g></g><g fill="#55565a" fill-opacity="1"><g transform="translate(102.198271, 274.621407)"><g><path d="M 37.25 1.71875 C 28.226562 1.71875 21 -0.421875 15.5625 -4.703125 C 10.132812 -8.992188 7.332031 -14.628906 7.15625 -21.609375 L 18.15625 -21.609375 C 18.332031 -17.453125 20.097656 -14.179688 23.453125 -11.796875 C 26.816406 -9.410156 31.457031 -8.21875 37.375 -8.21875 C 42.59375 -8.21875 46.703125 -9.125 49.703125 -10.9375 C 52.710938 -12.75 54.21875 -15.203125 54.21875 -18.296875 C 54.21875 -21.390625 52.644531 -23.90625 49.5 -25.84375 C 46.363281 -27.789062 41.441406 -29.335938 34.734375 -30.484375 C 25.890625 -31.984375 19.320312 -34.410156 15.03125 -37.765625 C 10.75 -41.128906 8.609375 -45.503906 8.609375 -50.890625 C 8.609375 -57.078125 10.972656 -61.894531 15.703125 -65.34375 C 20.429688 -68.789062 26.945312 -70.515625 35.25 -70.515625 C 43.738281 -70.515625 50.519531 -68.632812 55.59375 -64.875 C 60.675781 -61.125 63.441406 -55.847656 63.890625 -49.046875 L 52.890625 -49.046875 C 52.535156 -52.835938 50.832031 -55.726562 47.78125 -57.71875 C 44.726562 -59.707031 40.597656 -60.703125 35.390625 -60.703125 C 30.441406 -60.703125 26.570312 -59.835938 23.78125 -58.109375 C 21 -56.390625 19.609375 -53.984375 19.609375 -50.890625 C 19.609375 -47.984375 21.019531 -45.710938 23.84375 -44.078125 C 26.675781 -42.441406 31.675781 -40.914062 38.84375 -39.5 C 56.425781 -36.050781 65.21875 -28.894531 65.21875 -18.03125 C 65.21875 -12.101562 62.675781 -7.328125 57.59375 -3.703125 C 52.507812 -0.0859375 45.726562 1.71875 37.25 1.71875 Z M 37.25 1.71875 "/></g></g></g><g fill="#55565a" fill-opacity="1"><g transform="translate(163.295718, 274.621407)"><g><path d="M 42.015625 0 C 34.421875 0 28.523438 -2.160156 24.328125 -6.484375 C 20.128906 -10.816406 18.03125 -16.914062 18.03125 -24.78125 L 18.03125 -58.578125 L 3.578125 -58.578125 L 3.578125 -68.796875 L 10.46875 -68.796875 C 13.65625 -68.796875 15.863281 -69.320312 17.09375 -70.375 C 18.332031 -71.4375 19.128906 -73.515625 19.484375 -76.609375 L 20.546875 -85.890625 L 29.15625 -85.890625 L 29.15625 -68.796875 L 51.421875 -68.796875 L 51.421875 -58.578125 L 29.15625 -58.578125 L 29.15625 -25.3125 C 29.15625 -15.59375 33.617188 -10.734375 42.546875 -10.734375 L 52.359375 -10.734375 L 52.359375 0 Z M 42.015625 0 "/></g></g></g><g fill="#55565a" fill-opacity="1"><g transform="translate(210.874568, 274.621407)"><g><path d="M 18.953125 -75.8125 C 18.953125 -83.675781 21.003906 -89.640625 25.109375 -93.703125 C 29.222656 -97.773438 35.164062 -99.8125 42.9375 -99.8125 L 54.734375 -99.8125 L 54.734375 -89.34375 L 44 -89.34375 C 39.144531 -89.34375 35.613281 -88.210938 33.40625 -85.953125 C 31.195312 -83.703125 30.09375 -80.101562 30.09375 -75.15625 L 30.09375 -68.796875 L 54.078125 -68.796875 L 54.078125 -58.578125 L 30.09375 -58.578125 L 30.09375 0 L 18.953125 0 L 18.953125 -58.578125 L 3.96875 -58.578125 L 3.96875 -68.796875 L 18.953125 -68.796875 Z M 18.953125 -75.8125 "/></g></g></g><g fill="#55565a" fill-opacity="1"><g transform="translate(255.670182, 274.621407)"><g><path d="M 18.953125 -75.8125 C 18.953125 -83.675781 21.003906 -89.640625 25.109375 -93.703125 C 29.222656 -97.773438 35.164062 -99.8125 42.9375 -99.8125 L 54.734375 -99.8125 L 54.734375 -89.34375 L 44 -89.34375 C 39.144531 -89.34375 35.613281 -88.210938 33.40625 -85.953125 C 31.195312 -83.703125 30.09375 -80.101562 30.09375 -75.15625 L 30.09375 -68.796875 L 54.078125 -68.796875 L 54.078125 -58.578125 L 30.09375 -58.578125 L 30.09375 0 L 18.953125 0 L 18.953125 -58.578125 L 3.96875 -58.578125 L 3.96875 -68.796875 L 18.953125 -68.796875 Z M 18.953125 -75.8125 "/></g></g></g><g fill="#55565a" fill-opacity="1"><g transform="translate(300.465796, 274.621407)"><g><path d="M 37.25 1.71875 C 28.226562 1.71875 21 -0.421875 15.5625 -4.703125 C 10.132812 -8.992188 7.332031 -14.628906 7.15625 -21.609375 L 18.15625 -21.609375 C 18.332031 -17.453125 20.097656 -14.179688 23.453125 -11.796875 C 26.816406 -9.410156 31.457031 -8.21875 37.375 -8.21875 C 42.59375 -8.21875 46.703125 -9.125 49.703125 -10.9375 C 52.710938 -12.75 54.21875 -15.203125 54.21875 -18.296875 C 54.21875 -21.390625 52.644531 -23.90625 49.5 -25.84375 C 46.363281 -27.789062 41.441406 -29.335938 34.734375 -30.484375 C 25.890625 -31.984375 19.320312 -34.410156 15.03125 -37.765625 C 10.75 -41.128906 8.609375 -45.503906 8.609375 -50.890625 C 8.609375 -57.078125 10.972656 -61.894531 15.703125 -65.34375 C 20.429688 -68.789062 26.945312 -70.515625 35.25 -70.515625 C 43.738281 -70.515625 50.519531 -68.632812 55.59375 -64.875 C 60.675781 -61.125 63.441406 -55.847656 63.890625 -49.046875 L 52.890625 -49.046875 C 52.535156 -52.835938 50.832031 -55.726562 47.78125 -57.71875 C 44.726562 -59.707031 40.597656 -60.703125 35.390625 -60.703125 C 30.441406 -60.703125 26.570312 -59.835938 23.78125 -58.109375 C 21 -56.390625 19.609375 -53.984375 19.609375 -50.890625 C 19.609375 -47.984375 21.019531 -45.710938 23.84375 -44.078125 C 26.675781 -42.441406 31.675781 -40.914062 38.84375 -39.5 C 56.425781 -36.050781 65.21875 -28.894531 65.21875 -18.03125 C 65.21875 -12.101562 62.675781 -7.328125 57.59375 -3.703125 C 52.507812 -0.0859375 45.726562 1.71875 37.25 1.71875 Z M 37.25 1.71875 "/></g></g></g><g fill="#8cc342" fill-opacity="0.4"><g transform="translate(108.120127, 299.167156)"><g><path d="M 6.71875 0.203125 C 5.582031 0.203125 4.578125 -0.0390625 3.703125 -0.53125 C 2.828125 -1.03125 2.144531 -1.71875 1.65625 -2.59375 C 1.164062 -3.46875 0.921875 -4.46875 0.921875 -5.59375 C 0.921875 -6.738281 1.164062 -7.742188 1.65625 -8.609375 C 2.144531 -9.472656 2.828125 -10.148438 3.703125 -10.640625 C 4.578125 -11.140625 5.582031 -11.390625 6.71875 -11.390625 C 7.851562 -11.390625 8.851562 -11.140625 9.71875 -10.640625 C 10.59375 -10.148438 11.273438 -9.472656 11.765625 -8.609375 C 12.265625 -7.742188 12.515625 -6.738281 12.515625 -5.59375 C 12.515625 -4.707031 12.359375 -3.894531 12.046875 -3.15625 C 11.742188 -2.425781 11.304688 -1.800781 10.734375 -1.28125 C 10.171875 -0.757812 9.515625 -0.367188 8.765625 -0.109375 L 8.890625 0.21875 C 9.023438 0.53125 9.175781 0.773438 9.34375 0.953125 C 9.507812 1.128906 9.722656 1.25 9.984375 1.3125 C 10.242188 1.382812 10.582031 1.421875 11 1.421875 L 11.9375 1.421875 L 11.9375 2.765625 L 10.890625 2.765625 C 10.046875 2.765625 9.359375 2.601562 8.828125 2.28125 C 8.296875 1.957031 7.878906 1.4375 7.578125 0.71875 L 7.359375 0.171875 C 7.242188 0.179688 7.132812 0.1875 7.03125 0.1875 C 6.9375 0.195312 6.832031 0.203125 6.71875 0.203125 Z M 2.359375 -5.59375 C 2.359375 -4.726562 2.539062 -3.960938 2.90625 -3.296875 C 3.28125 -2.640625 3.796875 -2.125 4.453125 -1.75 C 5.109375 -1.382812 5.863281 -1.203125 6.71875 -1.203125 C 7.582031 -1.203125 8.335938 -1.382812 8.984375 -1.75 C 9.628906 -2.125 10.132812 -2.640625 10.5 -3.296875 C 10.875 -3.960938 11.0625 -4.726562 11.0625 -5.59375 C 11.0625 -6.46875 10.875 -7.234375 10.5 -7.890625 C 10.132812 -8.546875 9.628906 -9.054688 8.984375 -9.421875 C 8.335938 -9.796875 7.582031 -9.984375 6.71875 -9.984375 C 5.863281 -9.984375 5.109375 -9.796875 4.453125 -9.421875 C 3.796875 -9.054688 3.28125 -8.546875 2.90625 -7.890625 C 2.539062 -7.234375 2.359375 -6.46875 2.359375 -5.59375 Z M 2.359375 -5.59375 "/></g></g></g><g fill="#8cc342" fill-opacity="0.4"><g transform="translate(126.52343, 299.167156)"><g><path d="M 5.8125 0.1875 C 4.457031 0.1875 3.398438 -0.226562 2.640625 -1.0625 C 1.878906 -1.90625 1.5 -3.070312 1.5 -4.5625 L 1.5 -11.1875 L 2.890625 -11.1875 L 2.890625 -4.65625 C 2.890625 -3.507812 3.140625 -2.644531 3.640625 -2.0625 C 4.140625 -1.476562 4.863281 -1.1875 5.8125 -1.1875 C 7.769531 -1.1875 8.75 -2.34375 8.75 -4.65625 L 8.75 -11.1875 L 10.15625 -11.1875 L 10.15625 -4.5625 C 10.15625 -3.070312 9.769531 -1.90625 9 -1.0625 C 8.226562 -0.226562 7.164062 0.1875 5.8125 0.1875 Z M 5.8125 0.1875 "/></g></g></g><g fill="#8cc342" fill-opacity="0.4"><g transform="translate(143.152059, 299.167156)"><g><path d="M 1.625 0 L 1.625 -11.1875 L 3.03125 -11.1875 L 3.03125 0 Z M 1.625 0 "/></g></g></g><g fill="#8cc342" fill-opacity="0.4"><g transform="translate(152.793878, 299.167156)"><g><path d="M 0.84375 0 L 0.84375 -1.03125 L 6.796875 -9.84375 L 1 -9.84375 L 1 -11.1875 L 8.65625 -11.1875 L 8.65625 -10.15625 L 2.71875 -1.34375 L 8.828125 -1.34375 L 8.828125 0 Z M 0.84375 0 "/></g></g></g><g fill="#8cc342" fill-opacity="0.4"><g transform="translate(167.42398, 299.167156)"><g><path d="M 0.84375 0 L 0.84375 -1.03125 L 6.796875 -9.84375 L 1 -9.84375 L 1 -11.1875 L 8.65625 -11.1875 L 8.65625 -10.15625 L 2.71875 -1.34375 L 8.828125 -1.34375 L 8.828125 0 Z M 0.84375 0 "/></g></g></g><g fill="#8cc342" fill-opacity="0.4"><g transform="translate(182.054082, 299.167156)"><g/></g></g><g fill="#8cc342" fill-opacity="0.4"><g transform="translate(190.992419, 299.167156)"><g><path d="M 6.625 0.203125 C 5.800781 0.203125 5.039062 0.0625 4.34375 -0.21875 C 3.65625 -0.507812 3.054688 -0.910156 2.546875 -1.421875 C 2.035156 -1.941406 1.632812 -2.554688 1.34375 -3.265625 C 1.0625 -3.972656 0.921875 -4.75 0.921875 -5.59375 C 0.921875 -6.4375 1.0625 -7.207031 1.34375 -7.90625 C 1.625 -8.613281 2.019531 -9.226562 2.53125 -9.75 C 3.039062 -10.269531 3.640625 -10.671875 4.328125 -10.953125 C 5.015625 -11.242188 5.765625 -11.390625 6.578125 -11.390625 C 7.429688 -11.390625 8.21875 -11.234375 8.9375 -10.921875 C 9.664062 -10.617188 10.296875 -10.191406 10.828125 -9.640625 C 11.359375 -9.085938 11.738281 -8.441406 11.96875 -7.703125 L 10.4375 -7.703125 C 10.082031 -8.429688 9.570312 -8.992188 8.90625 -9.390625 C 8.25 -9.785156 7.492188 -9.984375 6.640625 -9.984375 C 5.804688 -9.984375 5.066406 -9.796875 4.421875 -9.421875 C 3.773438 -9.054688 3.269531 -8.539062 2.90625 -7.875 C 2.539062 -7.21875 2.359375 -6.457031 2.359375 -5.59375 C 2.359375 -4.726562 2.539062 -3.960938 2.90625 -3.296875 C 3.28125 -2.640625 3.789062 -2.125 4.4375 -1.75 C 5.082031 -1.382812 5.820312 -1.203125 6.65625 -1.203125 C 7.40625 -1.203125 8.070312 -1.347656 8.65625 -1.640625 C 9.25 -1.941406 9.726562 -2.351562 10.09375 -2.875 C 10.457031 -3.40625 10.691406 -4.023438 10.796875 -4.734375 L 6.234375 -4.734375 L 6.234375 -6.078125 L 12.3125 -6.078125 C 12.332031 -4.847656 12.101562 -3.757812 11.625 -2.8125 C 11.15625 -1.875 10.488281 -1.132812 9.625 -0.59375 C 8.769531 -0.0625 7.769531 0.203125 6.625 0.203125 Z M 6.625 0.203125 "/></g></g></g><g fill="#8cc342" fill-opacity="0.4"><g transform="translate(209.155901, 299.167156)"><g><path d="M 0.265625 0 L 4.875 -11.1875 L 6.1875 -11.1875 L 10.796875 0 L 9.296875 0 L 8.25 -2.546875 L 2.796875 -2.546875 L 1.78125 0 Z M 3.34375 -3.859375 L 7.71875 -3.859375 L 5.53125 -9.21875 Z M 3.34375 -3.859375 "/></g></g></g><g fill="#8cc342" fill-opacity="0.4"><g transform="translate(225.192966, 299.167156)"><g><path d="M 1.625 0 L 1.625 -11.1875 L 2.9375 -11.1875 L 7.34375 -4.5625 L 11.703125 -11.1875 L 13.015625 -11.1875 L 13.015625 0 L 11.609375 0 L 11.609375 -8.546875 L 7.890625 -2.96875 L 6.75 -2.96875 L 3.03125 -8.5625 L 3.03125 0 Z M 1.625 0 "/></g></g></g><g fill="#8cc342" fill-opacity="0.4"><g transform="translate(244.811372, 299.167156)"><g><path d="M 1.625 0 L 1.625 -11.1875 L 8.421875 -11.1875 L 8.421875 -9.875 L 3.03125 -9.875 L 3.03125 -6.34375 L 8.03125 -6.34375 L 8.03125 -5.046875 L 3.03125 -5.046875 L 3.03125 -1.3125 L 8.59375 -1.3125 L 8.59375 0 Z M 1.625 0 "/></g></g></g><g fill="#8cc342" fill-opacity="0.4"><g transform="translate(259.425496, 299.167156)"><g/></g></g><g fill="#8cc342" fill-opacity="0.4"><g transform="translate(268.363827, 299.167156)"><g><path d="M 4.328125 0 L 4.328125 -9.84375 L 0.546875 -9.84375 L 0.546875 -11.1875 L 9.515625 -11.1875 L 9.515625 -9.84375 L 5.734375 -9.84375 L 5.734375 0 Z M 4.328125 0 "/></g></g></g><g fill="#8cc342" fill-opacity="0.4"><g transform="translate(283.409628, 299.167156)"><g><path d="M 1.625 0 L 1.625 -11.1875 L 3.03125 -11.1875 L 3.03125 0 Z M 1.625 0 "/></g></g></g><g fill="#8cc342" fill-opacity="0.4"><g transform="translate(293.05144, 299.167156)"><g><path d="M 1.625 0 L 1.625 -11.1875 L 2.9375 -11.1875 L 7.34375 -4.5625 L 11.703125 -11.1875 L 13.015625 -11.1875 L 13.015625 0 L 11.609375 0 L 11.609375 -8.546875 L 7.890625 -2.96875 L 6.75 -2.96875 L 3.03125 -8.5625 L 3.03125 0 Z M 1.625 0 "/></g></g></g><g fill="#8cc342" fill-opacity="0.4"><g transform="translate(312.669845, 299.167156)"><g><path d="M 1.625 0 L 1.625 -11.1875 L 8.421875 -11.1875 L 8.421875 -9.875 L 3.03125 -9.875 L 3.03125 -6.34375 L 8.03125 -6.34375 L 8.03125 -5.046875 L 3.03125 -5.046875 L 3.03125 -1.3125 L 8.59375 -1.3125 L 8.59375 0 Z M 1.625 0 "/></g></g></g><g fill="#55565a" fill-opacity="1"><g transform="translate(108.120127, 299.167156)"><g><path d="M 6.71875 0.203125 C 5.582031 0.203125 4.578125 -0.0390625 3.703125 -0.53125 C 2.828125 -1.03125 2.144531 -1.71875 1.65625 -2.59375 C 1.164062 -3.46875 0.921875 -4.46875 0.921875 -5.59375 C 0.921875 -6.738281 1.164062 -7.742188 1.65625 -8.609375 C 2.144531 -9.472656 2.828125 -10.148438 3.703125 -10.640625 C 4.578125 -11.140625 5.582031 -11.390625 6.71875 -11.390625 C 7.851562 -11.390625 8.851562 -11.140625 9.71875 -10.640625 C 10.59375 -10.148438 11.273438 -9.472656 11.765625 -8.609375 C 12.265625 -7.742188 12.515625 -6.738281 12.515625 -5.59375 C 12.515625 -4.707031 12.359375 -3.894531 12.046875 -3.15625 C 11.742188 -2.425781 11.304688 -1.800781 10.734375 -1.28125 C 10.171875 -0.757812 9.515625 -0.367188 8.765625 -0.109375 L 8.890625 0.21875 C 9.023438 0.53125 9.175781 0.773438 9.34375 0.953125 C 9.507812 1.128906 9.722656 1.25 9.984375 1.3125 C 10.242188 1.382812 10.582031 1.421875 11 1.421875 L 11.9375 1.421875 L 11.9375 2.765625 L 10.890625 2.765625 C 10.046875 2.765625 9.359375 2.601562 8.828125 2.28125 C 8.296875 1.957031 7.878906 1.4375 7.578125 0.71875 L 7.359375 0.171875 C 7.242188 0.179688 7.132812 0.1875 7.03125 0.1875 C 6.9375 0.195312 6.832031 0.203125 6.71875 0.203125 Z M 2.359375 -5.59375 C 2.359375 -4.726562 2.539062 -3.960938 2.90625 -3.296875 C 3.28125 -2.640625 3.796875 -2.125 4.453125 -1.75 C 5.109375 -1.382812 5.863281 -1.203125 6.71875 -1.203125 C 7.582031 -1.203125 8.335938 -1.382812 8.984375 -1.75 C 9.628906 -2.125 10.132812 -2.640625 10.5 -3.296875 C 10.875 -3.960938 11.0625 -4.726562 11.0625 -5.59375 C 11.0625 -6.46875 10.875 -7.234375 10.5 -7.890625 C 10.132812 -8.546875 9.628906 -9.054688 8.984375 -9.421875 C 8.335938 -9.796875 7.582031 -9.984375 6.71875 -9.984375 C 5.863281 -9.984375 5.109375 -9.796875 4.453125 -9.421875 C 3.796875 -9.054688 3.28125 -8.546875 2.90625 -7.890625 C 2.539062 -7.234375 2.359375 -6.46875 2.359375 -5.59375 Z M 2.359375 -5.59375 "/></g></g></g><g fill="#55565a" fill-opacity="1"><g transform="translate(126.52343, 299.167156)"><g><path d="M 5.8125 0.1875 C 4.457031 0.1875 3.398438 -0.226562 2.640625 -1.0625 C 1.878906 -1.90625 1.5 -3.070312 1.5 -4.5625 L 1.5 -11.1875 L 2.890625 -11.1875 L 2.890625 -4.65625 C 2.890625 -3.507812 3.140625 -2.644531 3.640625 -2.0625 C 4.140625 -1.476562 4.863281 -1.1875 5.8125 -1.1875 C 7.769531 -1.1875 8.75 -2.34375 8.75 -4.65625 L 8.75 -11.1875 L 10.15625 -11.1875 L 10.15625 -4.5625 C 10.15625 -3.070312 9.769531 -1.90625 9 -1.0625 C 8.226562 -0.226562 7.164062 0.1875 5.8125 0.1875 Z M 5.8125 0.1875 "/></g></g></g><g fill="#55565a" fill-opacity="1"><g transform="translate(143.152059, 299.167156)"><g><path d="M 1.625 0 L 1.625 -11.1875 L 3.03125 -11.1875 L 3.03125 0 Z M 1.625 0 "/></g></g></g><g fill="#55565a" fill-opacity="1"><g transform="translate(152.793878, 299.167156)"><g><path d="M 0.84375 0 L 0.84375 -1.03125 L 6.796875 -9.84375 L 1 -9.84375 L 1 -11.1875 L 8.65625 -11.1875 L 8.65625 -10.15625 L 2.71875 -1.34375 L 8.828125 -1.34375 L 8.828125 0 Z M 0.84375 0 "/></g></g></g><g fill="#55565a" fill-opacity="1"><g transform="translate(167.42398, 299.167156)"><g><path d="M 0.84375 0 L 0.84375 -1.03125 L 6.796875 -9.84375 L 1 -9.84375 L 1 -11.1875 L 8.65625 -11.1875 L 8.65625 -10.15625 L 2.71875 -1.34375 L 8.828125 -1.34375 L 8.828125 0 Z M 0.84375 0 "/></g></g></g><g fill="#55565a" fill-opacity="1"><g transform="translate(182.054082, 299.167156)"><g/></g></g><g fill="#55565a" fill-opacity="1"><g transform="translate(190.992419, 299.167156)"><g><path d="M 6.625 0.203125 C 5.800781 0.203125 5.039062 0.0625 4.34375 -0.21875 C 3.65625 -0.507812 3.054688 -0.910156 2.546875 -1.421875 C 2.035156 -1.941406 1.632812 -2.554688 1.34375 -3.265625 C 1.0625 -3.972656 0.921875 -4.75 0.921875 -5.59375 C 0.921875 -6.4375 1.0625 -7.207031 1.34375 -7.90625 C 1.625 -8.613281 2.019531 -9.226562 2.53125 -9.75 C 3.039062 -10.269531 3.640625 -10.671875 4.328125 -10.953125 C 5.015625 -11.242188 5.765625 -11.390625 6.578125 -11.390625 C 7.429688 -11.390625 8.21875 -11.234375 8.9375 -10.921875 C 9.664062 -10.617188 10.296875 -10.191406 10.828125 -9.640625 C 11.359375 -9.085938 11.738281 -8.441406 11.96875 -7.703125 L 10.4375 -7.703125 C 10.082031 -8.429688 9.570312 -8.992188 8.90625 -9.390625 C 8.25 -9.785156 7.492188 -9.984375 6.640625 -9.984375 C 5.804688 -9.984375 5.066406 -9.796875 4.421875 -9.421875 C 3.773438 -9.054688 3.269531 -8.539062 2.90625 -7.875 C 2.539062 -7.21875 2.359375 -6.457031 2.359375 -5.59375 C 2.359375 -4.726562 2.539062 -3.960938 2.90625 -3.296875 C 3.28125 -2.640625 3.789062 -2.125 4.4375 -1.75 C 5.082031 -1.382812 5.820312 -1.203125 6.65625 -1.203125 C 7.40625 -1.203125 8.070312 -1.347656 8.65625 -1.640625 C 9.25 -1.941406 9.726562 -2.351562 10.09375 -2.875 C 10.457031 -3.40625 10.691406 -4.023438 10.796875 -4.734375 L 6.234375 -4.734375 L 6.234375 -6.078125 L 12.3125 -6.078125 C 12.332031 -4.847656 12.101562 -3.757812 11.625 -2.8125 C 11.15625 -1.875 10.488281 -1.132812 9.625 -0.59375 C 8.769531 -0.0625 7.769531 0.203125 6.625 0.203125 Z M 6.625 0.203125 "/></g></g></g><g fill="#55565a" fill-opacity="1"><g transform="translate(209.155901, 299.167156)"><g><path d="M 0.265625 0 L 4.875 -11.1875 L 6.1875 -11.1875 L 10.796875 0 L 9.296875 0 L 8.25 -2.546875 L 2.796875 -2.546875 L 1.78125 0 Z M 3.34375 -3.859375 L 7.71875 -3.859375 L 5.53125 -9.21875 Z M 3.34375 -3.859375 "/></g></g></g><g fill="#55565a" fill-opacity="1"><g transform="translate(225.192966, 299.167156)"><g><path d="M 1.625 0 L 1.625 -11.1875 L 2.9375 -11.1875 L 7.34375 -4.5625 L 11.703125 -11.1875 L 13.015625 -11.1875 L 13.015625 0 L 11.609375 0 L 11.609375 -8.546875 L 7.890625 -2.96875 L 6.75 -2.96875 L 3.03125 -8.5625 L 3.03125 0 Z M 1.625 0 "/></g></g></g><g fill="#55565a" fill-opacity="1"><g transform="translate(244.811372, 299.167156)"><g><path d="M 1.625 0 L 1.625 -11.1875 L 8.421875 -11.1875 L 8.421875 -9.875 L 3.03125 -9.875 L 3.03125 -6.34375 L 8.03125 -6.34375 L 8.03125 -5.046875 L 3.03125 -5.046875 L 3.03125 -1.3125 L 8.59375 -1.3125 L 8.59375 0 Z M 1.625 0 "/></g></g></g><g fill="#55565a" fill-opacity="1"><g transform="translate(259.425496, 299.167156)"><g/></g></g><g fill="#55565a" fill-opacity="1"><g transform="translate(268.363827, 299.167156)"><g><path d="M 4.328125 0 L 4.328125 -9.84375 L 0.546875 -9.84375 L 0.546875 -11.1875 L 9.515625 -11.1875 L 9.515625 -9.84375 L 5.734375 -9.84375 L 5.734375 0 Z M 4.328125 0 "/></g></g></g><g fill="#55565a" fill-opacity="1"><g transform="translate(283.409628, 299.167156)"><g><path d="M 1.625 0 L 1.625 -11.1875 L 3.03125 -11.1875 L 3.03125 0 Z M 1.625 0 "/></g></g></g><g fill="#55565a" fill-opacity="1"><g transform="translate(293.05144, 299.167156)"><g><path d="M 1.625 0 L 1.625 -11.1875 L 2.9375 -11.1875 L 7.34375 -4.5625 L 11.703125 -11.1875 L 13.015625 -11.1875 L 13.015625 0 L 11.609375 0 L 11.609375 -8.546875 L 7.890625 -2.96875 L 6.75 -2.96875 L 3.03125 -8.5625 L 3.03125 0 Z M 1.625 0 "/></g></g></g><g fill="#55565a" fill-opacity="1"><g transform="translate(312.669845, 299.167156)"><g><path d="M 1.625 0 L 1.625 -11.1875 L 8.421875 -11.1875 L 8.421875 -9.875 L 3.03125 -9.875 L 3.03125 -6.34375 L 8.03125 -6.34375 L 8.03125 -5.046875 L 3.03125 -5.046875 L 3.03125 -1.3125 L 8.59375 -1.3125 L 8.59375 0 Z M 1.625 0 "/></g></g></g></svg>